# xmcd
#
# Track frame offsets:
#	150
#	21390
#	38966
#	56553
#	78872
#	104172
#	129061
#	147984
#	165457
#	181234
#	211161
#	231240
#	250946
#	269042
#	289623
#	324253
#	352502
#
# Disc length: 4851 seconds
#
# Revision: 2
# Processed by: cddbd v1.5.2PL0 Copyright (c) Steve Scherf et al.
# Submitted via: audiograbber 1.83.01
#
DISCID=ed12f111
DTITLE=Bonnie Raitt - Nobody's Girl - Cincinatti, OH 1989 FM
DYEAR=1989
DGENRE=Blues
TTITLE0=About to Make Me Leave Home
TTITLE1=Runaway
TTITLE2=Talk to Me
TTITLE3=Green Lights
TTITLE4=Have a Heart
TTITLE5=Too Soon to Tell
TTITLE6=Cry on My Shoulder
TTITLE7=Nobody's Girl
TTITLE8=The Road is My Middle Name
TTITLE9=Give It Up or Let Me Go
TTITLE10=Thing Called Love
TTITLE11=Love Letter
TTITLE12=Three Time Loser
TTITLE13=Nick of Time
TTITLE14=River of Tears
TTITLE15=Angel from Montgomery
TTITLE16=Me and the Boys
EXTD=
EXTT0=
EXTT1=
EXTT2=
EXTT3=
EXTT4=
EXTT5=
EXTT6=
EXTT7=
EXTT8=
EXTT9=
EXTT10=
EXTT11=
EXTT12=
EXTT13=
EXTT14=
EXTT15=
EXTT16=
PLAYORDER=
